<svg xmlns="http://www.w3.org/2000/svg" viewBox="0 0 512 512" fill="#4f46e5">
  <path d="M226.5 92.9c14.3 42.9-.3 86.2-32.6 96.8s-70.1-15.6-84.4-58.5s.3-86.2 32.6-96.8s70.1 15.6 84.4 58.5zM100.4 198.6c18.9 32.4 14.3 70.1-10.2 84.1s-59.7-.9-78.5-33.3S-2.7 179.3 21.8 165.3s59.7 .9 78.5 33.3zM69.2 401.2C121.6 259.9 214.7 224 256 224s134.4 35.9 186.8 177.2c3.5 9.5-.7 20.3-9.8 24.3l-160.1 70.4c-12.3 5.4-26.4 5.4-38.7 0l-160.1-70.4c-9.1-4-13.3-14.8-9.8-24.3zm385.6-202.6c-18.8 32.4-59.7 37.3-78.5 33.3s-29.1-51.7-10.2-84.1s59.7-37.3 78.5-33.3s29.1 51.7 10.2 84.1zm-105.8-105.8c-14.3 42.9-62.1 69.1-84.4 58.5s-46.9-53.8-32.6-96.8s62.1-69.1 84.4-58.5s46.9 53.8 32.6 96.8z"/>
</svg>
