<svg xmlns="http://www.w3.org/2000/svg" viewBox="0 0 512 512" fill="#4f46e5">
  <path d="M225.8 468.2c-.2-3.7-2.8-15.5-4-26.6-4.6-41.9-5.6-70.5-3.3-95.2 2.6-28.7 8.3-43.1 19.3-51.1 6.8-4.9 14.8-6.1 27.2-6.1c11.7 0 20.3 1.2 27.2 6.1 11 8 16.7 22.4 19.3 51.1 2.3 24.7 1.3 53.3-3.3 95.2-1.2 11.1-3.9 22.9-4 26.6-.9 16.2-13.8 28.9-29.9 29.1-1.3 0-2.6.1-3.9.1-1.3 0-2.6 0-3.9-.1-16.1-.2-29-12.9-29.9-29.1zm-84.1-125.7c-5.7-18-9-40.3-9.5-66.2-.6-30.2 3.6-48.4 13.9-60.7 6.4-7.6 14.8-10.7 26.6-11.7 11.2-.9 20.7 1.9 29.2 8.7 13.5 10.9 20.9 29.6 22 62.5.8 25.5-1.4 53.3-6.6 92.5-.9 6.8-2 13.8-3.1 20.7-3.9 24.6-26.6 40.5-50.6 35.4-1.2-.3-2.5-.6-3.7-1-21.7-6.8-33.8-29.8-28.2-50.2zm232.6 35.4c-24 5.1-46.7-10.8-50.6-35.4-1.1-6.9-2.2-13.9-3.1-20.7-5.2-39.2-7.4-67-6.6-92.5 1.1-32.9 8.5-51.6 22-62.5 8.5-6.8 18-9.6 29.2-8.7 11.8 1 20.2 4.1 26.6 11.7 10.3 12.3 14.5 30.5 13.9 60.7-.5 25.9-3.8 48.2-9.5 66.2 5.6 20.4-6.5 43.4-28.2 50.2-1.2.4-2.5.7-3.7 1zM86.8 160c-26.1 0-47.2-21.1-47.2-47.2 0-36.2 29.3-65.6 65.6-65.6 11.6 0 22.8 3 32.7 8.8 16.5 9.6 26.7 27.2 26.7 46.3 0 31.8-25.9 57.7-57.7 57.7H86.8zm338.4 0h-20.1c-31.8 0-57.7-25.9-57.7-57.7 0-19.1 10.2-36.7 26.7-46.3 9.9-5.8 21.1-8.8 32.7-8.8 36.3 0 65.6 29.3 65.6 65.6 0 26.1-21.1 47.2-47.2 47.2z"/>
</svg>
